<svg width="256" height="256" viewBox="0 0 256 256" fill="none" xmlns="http://www.w3.org/2000/svg">
  <rect width="256" height="256" rx="48" fill="url(#bg)"/>
  <rect x="20" y="20" width="216" height="216" rx="36" fill="url(#glass)" fill-opacity="0.18" stroke="rgba(255,255,255,0.32)"/>
  <circle cx="84" cy="112" r="42" fill="#F8FAFC"/>
  <circle cx="172" cy="144" r="42" fill="#F8FAFC"/>
  <circle cx="70" cy="98" r="8" fill="#EF4444"/>
  <circle cx="98" cy="126" r="8" fill="#111827"/>
  <circle cx="158" cy="128" r="8" fill="#111827"/>
  <circle cx="186" cy="128" r="8" fill="#111827"/>
  <circle cx="158" cy="156" r="8" fill="#111827"/>
  <circle cx="186" cy="156" r="8" fill="#111827"/>
  <path d="M42 58C62 36 89 28 120 32" stroke="#FCD34D" stroke-width="12" stroke-linecap="round"/>
  <path d="M214 62C194 40 167 32 136 36" stroke="#FCD34D" stroke-width="12" stroke-linecap="round"/>
  <path d="M128 54L152 94H104L128 54Z" fill="#38BDF8"/>
  <text x="128" y="208" text-anchor="middle" fill="#F8FAFC" font-family="Arial, sans-serif" font-size="34" font-weight="800">7 UP DOWN</text>
  <defs>
    <linearGradient id="bg" x1="32" y1="24" x2="224" y2="232" gradientUnits="userSpaceOnUse">
      <stop stop-color="#7C2D12"/>
      <stop offset="0.48" stop-color="#14532D"/>
      <stop offset="1" stop-color="#082F49"/>
    </linearGradient>
    <linearGradient id="glass" x1="20" y1="20" x2="236" y2="236" gradientUnits="userSpaceOnUse">
      <stop stop-color="#FFFFFF"/>
      <stop offset="1" stop-color="#FFFFFF" stop-opacity="0.25"/>
    </linearGradient>
  </defs>
</svg>
